<?xml version="1.0" encoding="UTF-8"?>
<svg width="752pt" height="752pt" version="1.1" viewBox="0 0 752 752" xmlns="http://www.w3.org/2000/svg">
 <defs>
  <clipPath id="b">
   <path d="m167 139.21h158v473.58h-158z"/>
  </clipPath>
  <clipPath id="a">
   <path d="m427 139.21h158v473.58h-158z"/>
  </clipPath>
 </defs>
 <g>
  <g clip-path="url(#b)">
   <path d="m214.45 139.21h62.773c26.004 0 47.082 26.004 47.082 47.082v379.42c0 26.004-21.078 47.082-47.082 47.082h-62.773c-26.004 0-47.082-26.004-47.082-47.082v-379.42c0-26.004 21.078-47.082 47.082-47.082z" fill="#0871b9" fill-rule="evenodd"/>
  </g>
  <g clip-path="url(#a)">
   <path d="m474.78 139.21h62.773c26.004 0 47.082 26.004 47.082 47.082v379.42c0 26.004-21.078 47.082-47.082 47.082h-62.773c-26.004 0-47.082-26.004-47.082-47.082v-379.42c0-26.004 21.078-47.082 47.082-47.082z" fill="#0871b9" fill-rule="evenodd"/>
  </g>
 </g>
</svg>
